<mxfile host="65bd71144e">
    <diagram id="nQ6xbLR2C7fy7lRF-Psq" name="Page-1">
        <mxGraphModel dx="3236" dy="899" grid="1" gridSize="10" guides="1" tooltips="1" connect="1" arrows="1" fold="1" page="1" pageScale="1" pageWidth="850" pageHeight="1100" math="0" shadow="0">
            <root>
                <mxCell id="0"/>
                <mxCell id="1" parent="0"/>
                <mxCell id="2" value="" style="shape=stencil(lVnZUhwxDPyafVXZli89E/IfVAFhKwQoINffR86Wh7E801O87dEa21JLanlOfPX2cPNydwru7f31+fvd7/Pt+8OJv5xCOD893L2e3/XTia9PfHX//Hr37fX559Pt5fvLTUO2Tz+ef7Un/LnYhUo1N6vg/l5+8eT4/w9fL/jH89Man6n9t8IHSgLwgaIf8JE47eO9UOYBnyhVgM/9747PJAjPFMf9V4poP45YBrxQLfv4QmWEe08e+CeRjO7xgUrYx0eqo3t8pATxxj3qsAzxYuggPYA7+zf0CUwePL9QiCO+QH9KZ2PHM0P/qLvdGN/oyCFCBJIxYjETgx35KQRJUyBCihoKpUoZ+NQXSiMpcqSMVqjk0mBQHN6S0nQMW9FNgrTXMxiD6nsibRsk4pF4VamOEo0tk0QDBzJHA8ejl0QfgbbkqLrRoJADcRDyZcRLZ+8Otw3eOz2CQ8nD2S6QQBTYFhfR4gWoGnpMVwf24PmOZExOSZRB7iynW0UAhUxJOeKrOhRwgimNDq1MAvavpdmkQcGJVsmbNFi2uO1Q6bVkycwAPRp9D9CS+wzLUYoUxy1FjTpYIWtFNRUyQdJp4pootCYEDD7SauG1igaUN0LFJEKCPFUD29WODcQaJLwlQ+1mAKjaDKo1KIhLbsoGtahQWswWGYZuY1OZPKhIG8dW/ZY/5VhtDHiFOq3A2LFlOgODjGgGYTIAdV4NcpkOjcqG9O66diuOQ574iprbxgqpN6Ndg2wNMs6IMrEv4UiXZA0iDlz1k8EBl+YycJBzk1sPziDTCvnAYKobKA7bWX0QarvEIZms5F5mrF0Dbw0OEsLOeIcp90kD7h1kNTagaqlNKJsmlGEgtM3x1OYqGqyiFQ8x4snHWwNt1QLI1PThGOnMffjYkxthLH3Fw1FjolLBeo9taa2xV4UdPWbaruqxDLjtJsUdegJuH7gTf8HH3i129KrRPqKZAM9bx/OqvkWXBcneRQgexEofZVf6HOlbmfRwxUOS6+VtdWBGIiPYQU8zzwOO6lRl5n8NMaKQVjc3ck7ntogqZKZoSOShiNHZM45e0tkzYINs0sBBSawG3qj0hBMzW1mfNLdRHGKf09ayHg+rpj3H3KXZHjWM6okO5mbtLlnqY+zVZrugWmXYLsLgRU8yeO4lfOciKZsmJT2MO/gwqbwIHBS7fF/wDNV22riYq4BEpfevj2Ee1qJ2UTgeoOIAc78HXVgNL/LaRae5FCKHni+2tsQuWvcuankMMMOWr8ub4ughHxpBx/bq4OVLu5gOFo+fX6fnA3+28HiLR92+Wpnm4OTf8GLwaAhpzcPuBw1eDW/9g9T4Fh5e3G/sBym6rfOi27iGTwYvn4yXoP1/9sXGIV4/fLxFuT8/Pl5ewqz/t29d9KfLGxu+/gc=);lineShape=1;" vertex="1" parent="1">
                    <mxGeometry x="237.8706008851716" y="390.0849515130453" width="673.7172701921952" height="270.4818338318105" as="geometry"/>
                </mxCell>
                <mxCell id="3" value="" style="shape=stencil(lVfLbhsxDPyavRKiqOc5Tf8jQJzaqGsHjtsmf19uF7ItqjuNb85mRuJzSE3y8LZ9et1M3r2dT8fvm9+75/N2ki+T97vDdnPanfXXJI+TPLwcT5tvp+PPw/Py9+vTjJx//Tj+mk94X3i1Us4zy7uP5QtT8n8/fF3w+93hFh8ohA6fqQB8iVTN+UrgdULO5KQj6A21AIKj6juCBEqAkIRC7AjBU67rhBgp9zdEvTOuE0KmWHpCJQ+iJJVi73TSMARA8MS9D1lgHnwk39+QKxVZJ3Ch6jqCppJBWNnbG6qj4kBYKXGPTyTAIj2td1lrt4LzHaU84EGaHYVyH154wIPKdsTJ4jOoIkdu8DfC+Dhn8R4kTPGD/Q6UkOJNfErTjhW8dxYfIV6SxQfQA45isHiB/mYZzof5qqP9AM9WuBSfQP0wsbf4ijrStrzmi+86vzbhW7M/WDzS0TE+qijpnvjXNhvW8tv7y+5S4p8sIL0AFpAt0ApH09gAtUnYpxtMoMNjAzP01wpEaRK5JkADPkFBkaEBAm7gu/Cxyc0FH3ADcDP3MpK0okGAdIYZi4rASe9DW34uUxJrkDBFQ/CwyURT1E+lFKFKhESldoSY25e1bcWUXagwzcnb9SYwzJtuXNybJEICnM6JfO+0T5SAVMyrhtkaU5vO/15LxZZGgmm4Sm3DqxiAVp5HYzJ4B5Iwj162eDBbr8pwgweVPa8C3uJBjmelsucztqc4Gx8Uz2qHgW5T+Pxq7UHPjhvpvxLg+joSuKVw1SIzblrRrkaoGHzA59/30PovXn9cX3Uvu/1+eRTe/t++AvXT8oKUxz8=);lineShape=1;" vertex="1" parent="1">
                    <mxGeometry x="472.83869171654146" y="361.08556150707" width="216.57060180471944" height="154.10773568867444" as="geometry"/>
                </mxCell>
                <mxCell id="4" value="" style="shape=stencil(lVvZchw3DPwavbJ4H8+O8x+ushyr4lgu27n+Ps0oHA0bs73x22pFzJAE0OgGuQ/pzbeP7748PkT/7fvX518f/3x6//3jQ/rpIcanzx8fvz59x6eH9PYhvfnw/PXxl6/Pv39+//L3l3dz5Pz02/Mf8wl/vdh5F/o0iv7vly9qdTn8+83PL+M/PX0+jQ9uhH18cjneHp9d9ft473y/PR5v38eX5ka9Pb67UvfxxTUxPnjX9wWX5KqYUEiukEFwLQuD6trYDPJwQ7wBPkhpN+huDGGQnS9sUIQTsEvVGpTbBim5ZqbUlcEx49Oik1h0zi7GfVsRGCLw8LwQ2OC/SV4awK/ZOK6I0ECkhbwbRNeFpxHK0QRf8cIgukDRPVxWb4hu7H6o2WWxhmmwL7phW/WUyu6HVlaGXBsEzugeZHhjl8K+ht5dEOENP1DwjSQzrmRO0dHWJK8NvBt7PoyxHnEdfM3FfdHB633NgI3Mr0jCcxnP24NpdOdFfKfqxu65UV1UOYqU2zNoHN9cG0TO0RFdEp5LAFfynNfQN9bzjtgYcg0TyXZXd2Sthr62r6GXBSS3phT32EB8N+FpGLTdcW3I6MMuUc1qbVXha4Ng3pAlbAC+876tDVkrdikBt3aDOlY4Xhs016mu1/XNtQFqYGMk603kQ3R+TyAwDbVLqCiephRkgciFUQBQldWU+qIuZ/gW0VpMZS9dkg0UnFHZQC0aBYe2FejZRXhjxgQCMLhTswjIYKBQo5ZVNA+DA6muDToXORgovG/BkL7qqnBcA8UzbyhiDcgvwlYYBDWlathJXvF7y4AIE9iJF9jajmpwMKwqw7sNLig5yLoLg77nAyqGIn0d/GefEtDWa4Owbyv0hApvTCnt2xqypGTN4NKQnA9kp5KjJftp0eyRK8IJgFGiV3Gt6FbykHiIkhVPRpn4+SLXACct03glr4AvtJ9IJUXFEjssL458PT642Gn8UM8/RMKrv5TMAKBS5lfJYLBeT3Thnmbo+/igIxolpu9ZiYhWyIIy6XeED00SyYp/7wYQmEMBhWeaBycoddiMZohapANOE2WN1wZlFbHDIMnSjLyn4j8pjUiECad7ooHSJFEHJ5ySQV+uvAV2bZ/SHfztkWMbHEglW8/MR6aqVm8o3F0BB1LR2iv7YZImNaVu8rlKx4HvU6WdBuINA6TOvCEIx0E8UrRmjRlQRdzLyBJUobu40iYpDmFAXTSEhiJhkIIkShB8qu5AAOcd57OXnsYuEZDBIKrQaCy6YdAUp+qmaxU0kNXlppNBV+BtaB4SSFUfbGIcbKDKfxiLZ549LaAys4jBEoZIh8QCeo5Xsso09rTmSYv2nsar9ATqmvkE1WNYzeNTUCg5cqD6aXxWUph16oxSuT+N8mbI1mpiSYjxUqW60H5sfDLjVYMks/i6k8bZ1Wr2U3WduDsyk1jsT14pfo4HpbFNRgapmPOCwXM8q67wAub/CRGZZdrdfBxmPopLpYv9UfuZFtE6FwKFWGv3TuMlwl3ko56/LRtFz9+MV1UDeGXyV+FnWt4854tqu3KDfeajjP8fGz8LgEkwFXDJVG4YVKUoEvfX55LFFs0ymdhA5Ty4MvWMMEl1ZoZSTycps/2nyQTBCgwUTICuUKlPVcbdqf1+eoXivmO4SKUmyoYLOFcytb6pVTduh+QiFzGM2M+6EQxmyj2gLk9rh2mizmM5kT99cAGEgerrdiOAs86gbjplWbf8oXKo23dn0T2ZNzR5Rt298UNZgvVmW8qERlbisbHqn3VWvcEoBCS1F2uYitnoWa8UczYSO8s2bTO1J0W96MDkNA5J7upYbjoMqmR3gD6iFzFKulDTUhxHM2WspL3VrqEz4VAlasxDZDopTC7qw0vSIAGhIRxXArcgu8xQpBe1FarsTGfjhaRbbIExRp+ao8BxE1gCdyns5KALaOcCqs8ga+QGm5dqf55vVBovT9gHt1C9BhfDwfR9E0BFoaKgy3/nM6YuD0+AjiT0Q9b4G3gBs8uvDUjVYUoqZ2BAlTYV3azwRmcGfY4wjBBprig47aysS5RlDSWBzmjv3FyCnwm7Xi9K3CoJwZw+yp5o4u7GnePKZhw3zxcU/na+nlI0eCHZ+CBu3LvPwgc6Q5+IHIToZCDxpXIjeF5puwN49pxZIarnwlmDvDT3ev3rZNCVLK/GIMqikzNva01SlYBckwSAKxXznISIDKqW5p215Iwu4WlICro7gviV918y3xVsSYZ3MlfOZtLqGzZs0BefvjYw3e9+R9Cbq05dN7OT55wGxU/qDYElMUSEYp5YNFHVcafJkM2FsCgr0DzKoctXWd9G9HxANfShQjZQ+Sphrw0as555vUvhkl/15vQGeXckMS+EvlS9zlIvtlXdgisGvWdnQHh64py5KygvmwQmw+1gf7cM6Dx73ndU7C3womuWCVTDBdzLI+GxDu1OdVqpGPiBCCU0gWo0zEN2esPRh7spAajGHfB8C+6ZOkRZdlM3dTrIfEimE1i87BtMlprZQPlh9vaKMRCeBi/nm05eJlAwt0KxaFWBgmk/vx5ZXRsE5vbzhrFq+PDxa7lDW81tsCFJaGFtOPNJPD9yWMxsE3FkiH1t8rw5sNoGB1DXQU01rFppeC63GK8KOphbMOPFej33VOZ8REB4JqtzvfL5dD4191PuD90owPgqUsDzdRmMz3L+fEcTdVHEm31+le12b8C6ygT70Z+/3B+PD6+/tfnw9OnTy091zv/n3+bgq5ff9aS3/wA=);lineShape=1;" vertex="1" parent="1">
                    <mxGeometry x="454.5685731411097" y="309.0418194502465" width="202.08557727828543" height="125.72884520247658" as="geometry"/>
                </mxCell>
                <mxCell id="5" value="" style="shape=stencil(lVfLctswDPwaXzEkQRLkOU3/IzNxak9dO+M4ffx9obp0RFBaT26yvCsAiwfBDT+87Z5et5vg3i7n0/ftr/3zZbfhL5sQ9sfd9ry/6NOGHzf88HI6b7+dT+/H5+vv16cJOT39OP2cvvD7ynPky0QK7s/1RUoU+N+br1f8YX+c4SMF3+FjJefX8T5TyR2BhWJaJwQhHztCqBTiOoELceoJjqKAECpV6QjeQ5dyoNCLxCR5HS+RPHd4R86t40si8QZfQA6qmu+/L5SBQlWo9JL6QgUEXCvF2gccKIEsK6H2WY4CCd7dJGmMnIlREFoFfdZUtogIhVzvk74RJKtQ7dOgNj3IsxJSsYSELXhnCQXpmpuKM0IFtV0TFRkIFRLCQCjIQiRJlpADJPBgIWAL3hDulGu0Q0wJEcmqLg0E1KFT0MYlbTnkUiJ2lgBdSkPxCQWUOC2NaAmM8iB2Kk0uIQsa4uCSoMRpA7GV1SOVllr0f0utWhg6zuGgZWigiAljP8CpkRcsVExw/XCdDcO12oh5MIFbbpxkgglxiJpRbQx7gGYOzpnYKmGeajRcP03QlutVKrc3q4noi+neEaSEvuWmUw5PY3NA6DkqyEJs1XyrjYp71FEyKrXELK8asW06H6tMAIUhWnp9BAGecFkrr597qe0ei/gU7OLguU3O5eXN29GtHjHwiF3bHm8R+3YKLy+guhKb5Uc1Resb+b4VkoOaxrZg3/AZ7qtsJVK8gCHJlHr/k5ADU5jtuaB4tHCHdtzP8Iw2ejvvJjzw37eemuOBnt62seI90NNRHvSsIF7XrM/w6Ox3dslTPPJ/2IT1Clbh9x1bPDo0P3vFu4/Xh4/75Mv+cLheR+f/2/unvrreXfnxLw==);lineShape=1;" vertex="1" parent="1">
                    <mxGeometry x="227.58825438258327" y="173.9887904361301" width="63.9760914130552" height="92.2344270054391" as="geometry"/>
                </mxCell>
                <mxCell id="6" value="" style="shape=stencil(rVjbbtswDP2avBKSqBufu+4/CjRdgmVNkWa3vx+9TI5FxScosLfE5rF4OSSPveGH993T23YT3Pv5dPy6/bl/Pu82/GkTwv51tz3tz/prw48bfng5nrZfTsfvr8+X/29Pk+X069vxx/SEXxeco5ImUHC/LxeEavx74fPF/LB/XZhnqq4zzyR+3dxniv3jmSqw19tJOvtA3q3bs6fEnb2jXIG9NHev9g48P1YK1dinsm6fErEz8f5z8La9EPf+eEceBDABeoe8UMzQo9JnlDVkUOGoKcodIDpY4xhI+hOSpwySxIli6UnkqYCgQ6Han1CUtiDo4CnGHlDJg6C91rkHVE8SwAmRuM9STbBwzC0nMyC3qG6nNVLtqV0r5QQqnVtO5lZ2xIB8RUPsg5ZAAQStDpi0SoQxiLSsz4DSGmoNELMFRBCDAkqwgAI6WoYJIJUc4JJ384hYICKOWqoFCA6imiGsbQ7oqrdztAA096bnDSegptbbrs/rIg+3EbV5sDwC8FUBPABQV0sd2IRnn1LBFkJgrSdA33NTVKhy4wnqJOLGGENpK3U1S2IB6U4dBgDfKTVbQADzeyLT0KSM0jrStbQ9v9oQwwl3OmisA+qg211d7nS1GRxCAefVjiahdGf4DU1aUQfpeGULEHRCtWLgfwPqTP9F5VAH6RKyAjTCE3TNGcknTB5sLV2kyXDDNwGytqrZrGppTq6p1nFVw51S2iZfqAc0+lRHp55Lkz4BbFWd6nt6lwyVdBhOyBUGzZFc3w+qTSsoXPRtk8/CEu+gUXwzXouJm2ab3x508YKgU2nPW6hpJJkUYLjkNSrE1tikwpwlEsA9jdnbFyZG5J7F/PWFqSBue6rBPD9iapvBihWfElWMtqcM/B/yiXWMb29fc/oDVHueggz2yP1B9WB7fQ2JH/HHtdW9sEfvh+6G/0g/O7sQlJ5omDq7+tUeTethaao9kgrj8x1syNF/zRiYi2N+9Aq0t/l3bYqt1fcjX0fumuuP64eYl/3hcPmOs7xvP9zopctHH378Aw==);lineShape=1;" vertex="1" parent="1">
                    <mxGeometry x="336.5849234735149" y="199.0631161406909" width="122.0666552042776" height="92.57956366040571" as="geometry"/>
                </mxCell>
                <mxCell id="7" value="" style="shape=stencil(7VnJThxBDP2auZZqL/tMkv9AYgijEAYB2f4+rkyq6bJ73ggphxy4TYjd7fX52b1LV89314/7XfTPL0/HL/sfh5uXu136sIvx8HC3fzq8yK9d+rhLV7fHp/3np+O3h5vTvx+vu2T/9fX4vT/h50mvsGuha0X/6/QX7yj9+cOnk/z94WElX7OLRcmnAOTZBVLyPp6Xb8W1rOX9eXlK43Gv8oHPy7N32U/yAT6fq6PZnuQieH7wi71DoTkm8AJyeXYgZJeRB9HVOQMxOg9SRllbFBnmuImLs0mpuVxAkoMrcxHlPMK2qVAkSLNCCTBtWbI6p6FIoQAfUtJ1VCQPFSgExzwrEMy0KPw1YKWQQJREIVejgE0KxiTUbMk7zsYHrGB98A0qlKbDSqC8RUE73VzFb1D9UHDxdQWT6QggpvuQtILHUarKaUEF/AYyCvVCpoNWKMjp6oJ6Q3IMFLK8QYU1wlrKEpMZZqRpCSClGFBmpM8CM8DpahInChXNkuaK1yZ5ADMCZLofPIxSY+2DRCkABcFWXa0JojfRKOZFIQ/g2Yb74Kp6Qx0DYFtBkE8pEARjNvNB8LyB8haT2uyDsAJGE6gNFFoUaEyMbQXpODVEoyso01HTgFYdA5gRF+uMSyTwDICsGNSgAqdoYs00iMdM2lSINCweCpwgVwqs88AFwkyIY94sCktLbUfJWEQQvCWoc/sww9ILLjUtj4Z0GERn4Uoe00OpIzYvAAYJmTXyCPSEllQtX0AVee2AyCeQYkMmRR5xPZFX9tOokTPykbQ8akw/ptJKPsF4knl+hAUR09vkN+xBLTNadiWP4DqafBGknTItTH5RfUY9lUUerheapPZ6gw3TTIM1UJ8LBq77BfgbNC2/3JBkChrhtN8wCJEKbwqIISSKtaaBM2wA25ABN6QpUISIXk/K3pCgIAy97g3wD+WrkV944XZBhFFfq5nEoCBkiGnIynAFkTGpLhDCRzIIaaLBKpdBTIM9b1Nf1hu20LwIuqaaMdPwmGkGF1sZgT5HTJMiRAFGSciJ8kHYcwAmkSETNTnCxLTMTvczALp0mNLoxyfgQ7/V2O0Ukeu2wZUhzxSurDbs4jzwQfLglQ8JAqqsIIrJykZxYclJakEIcORUu84GOAP7pmgU0BDJzey/0WXUQDKmoo4SPL7IguB1HpBJKY0psN7hEQi8n3dGA72fd/7/804cN+OVQsbLpr4HychCLUpjKq+vNQiXvJ5AOUFsbQYE+tEK1BJFnTgZ9RXf8nkuvs5HQZS4Dtha3drRQGHSYcXrgnAdmn3OYyM+54EqjAjlJUTKYwkyykFxTcujE0Tlsc2t5BE7zAOlX+0PuIh81v6C53eCoJ9/QV5dCEUefYdgzSXxmUnkjf0Z3URJ87wIAVvkm5ZH21SXN/lCRyzS+2CAONTt1/WD1v0en6Dk0fm0x1/LQ39ZX0895Khv/bp5WV5+vH5KvT3c35++xK7/X396lT+dPtumj78B);lineShape=1;" vertex="1" parent="1">
                    <mxGeometry x="444.0611689500656" y="206.85101208700598" width="125.16157142120528" height="150.70615347438547" as="geometry"/>
                </mxCell>
                <mxCell id="8" value="" style="shape=stencil(rVjJbhsxDP0aXwntIs9p+x8B4jRG0zhI0u3vy6khZUTNPLdAb+MZPovL46ZDvHl9uH0+HoJ7fXs5fzn+ON29PRzih0MIp6eH48vpTZ8O8eMh3tyfX46fX87fnu4uv59vF8nl6ev5+/IPPy84T7EsoOB+XV4k8u7Pi08X8cfT00o8Uw6DeKAa98W9o5wGeU+lAvlIZZR3xOj/C4k38g6or5+rGHlhIK/6uEE+UylAPlHk0d7Y3uwdkEf/Lx7NAOCJR42inoBcKlRGF6VEEgCgUhxjnCs5dEJunxugCGUPoxzGE9hBt/pAabSBmSKIs6pUxjiwNObuudWPxONMFUVaiPMAqAyNjmIDp15KINLZkR+5mnsoNwFFnTgCkp6Q9gHVt1zvXFIASDcNk/FSDOSBShomb+qFBg6oJIlcHE/QjAZxkDoBCiUQaWFL75QpgDgoQMYUzRnmg0hLyB7pjI2WRrUVlyqyQUhGo+VKArleFzuCyQk+IllAwYBqAEIBkEk6OVcAZIR+dsUCBJ3Atpus/LCHCNEewaB+K/140ikjclTKbAEohRSQgg1ERmzS+j2WAX0D3aQqOQuAfK2t6XdAgW164Vq1gIRCze3zCnAlSVkmAM65MAFQ7VvIORldcUJwndyKyKdsngIHyacAc4L67YpKhkuCq6uSOVsAJJ/YprWciSNdzcR0PUfjXAYwXWVKOVjKahtS16UMVwFLV27V8G9zlFtr/X8AE2p3TSXT22vPqW1AsVVA2xwsfaXRf9VI0Xwi2cYhFXKoLyYqI10jw+FYgm2kOk17YLQONHVUKXq4QbBvVaUDMix9NVA2U1yAbbEECuNwnHWFAB0l+zZc9MCFVkg2AUmXxNGGGmBHUZ9EM02rkmgvCzaBdF5ntEJkYjM8JFjvvW9LTwf03W6bGnZc19CjGjCvulXgJqdLjXFS4daItwHJ9ulcYKXU7djmT2xWbQO4MW0130e0Bblpvu9s3AOYbVStQimtgDDawG2129tek93YYdgSeTbyqOopj9woX9puup2dtubp7IQSgbzpt+24bW2mQQw2BW+Vwd3f2csVhlOes1cZOoyAquLsAMaQzK6tK++ORNvztO+Utq/viXsjjqrJRPvcNo0dcXujAi/ZphzpbW0vTPYKL6LS+W83flfF9eH9cvH+9Ph4uZtcf7eXkfrqcpEZP/4G);lineShape=1;" vertex="1" parent="1">
                    <mxGeometry x="596.2976756219507" y="199.08578226657687" width="96.91617675046655" height="67.00684278381482" as="geometry"/>
                </mxCell>
                <mxCell id="9" value="" style="shape=stencil(rVjZbtswEPwavy54LK/nNP2PAHEao64dOOn19x3VpSqurGkL9E2Wd0jOHrNL7eLd6/PDy34X3Ovb5fxx//Xw+Pa8i+92IRxOz/vL4Q1Pu3i/i3dP58v+w+X8+fR4/f3yMFlOT5/OX6YVvl1xrUh1Eyq479c3Qbz/+eL91f54OC3sqxMXBvsomrbtU5HoB/ssWrftY5U2nqdJ0m37UCXGwd570bwN8FliHQFRStwGFCnjgbCCJwy085vtq6SybY/zlDEAXhxZ3wdRHQEqnjDGes3sAKc5EoMoYaSMN4UkhYJzGwDqJBEOSSWNWaS1u+G2k7yEkUPKUgnpHMWPHHKiR8pI7JFDUXHESylaDtVLJqWgAIw71NbfbOV2HiPdklQCQCaHNAKaVHIk5FIqFtBIHFBcdSTtnaNuAsL4ddqC1Jt3XVAWgEIi12x6wz4R0s0WNOwDXT+b9aFRJApwebX2rHpA2EgkAMqC4KQFCwgsL5CYcQVgQQsS2wrAOMRVlGtntQXIK4AyDmoLenIryyPtPlnE2bEjAaAWwHQSHNoqU5nUA/CrNS1Tm5EOUr0FNNIOAXBjsv5Ffcaw2oI1UNdVbiky7EyuTxQLQCaRg09WBc2aA1ZbeZV10Nnni0yqzEUgkCyADSUAWIlBNfxPQEgSDGelzSc20VECaqWqqs1GDe3NkSik1EVrbqCYGgiHVO2R0KKZUKLll5H0NF2S8kmuC/s8ZoAVAeiq96inUwNyyQxjUXmLnkeveRhrdAc4aQwDQh+Z7N0YJxMp51kdZsEotPzVFidkk0V5UtUxaJNGkUzFQGyHGCkss3NXxDnv+hG38tRMVagcknVl7vYzAXrjacjSUVDnK9Nt+2IvJFywoQxOrT0JQFtNkZAzZo8SKcaedcHW7FiL2Z/bV7s+7eNulaKYf5i8rwZC3xv7ln0xNzY6icDeiISnstVuJFDjATa6iIJh7fIfr/B/tsfD7+8FT4fj8fq5Yfm//b6AV9dvE/H+Bw==);lineShape=1;" vertex="1" parent="1">
                    <mxGeometry x="736.5095682950746" y="195.01988756284845" width="53.96766151820475" height="138.80325369537536" as="geometry"/>
                </mxCell>
                <mxCell id="10" value="" style="shape=stencil(fZTdboMwDIWfJreWYzskue6696hUuqJ1paJ0P28/IzSNpIrvApwvx5w4dry7nw+33hHe52l877+G43x2/OKIhuu5n4ZZV473jnencerfpvFxPa7Pt8OiXFYf4+eyw/fKISAuEOFP9eJ1lV+G60YuIFzJA7flnqDzhZ4gdW09cb1/hGCUwwieCr06slGQeCApC0JIuQ0EBiwrYt3CcOgEfCgA0ZJiG4gC3BWAejK1gaQlxQJQTzRSzU8pqSd6AwgQSiARRMshgVRAgmiklDOkMtbsIRsleXzq1Mxmb+QIXB51FhtAkPIgNAerNxI+/UQETEZvZOBUA8kAQqzvgyZNBiABONdAZ3SfXjApU9ok3TgJoMoigxgW8tfNzZR08T+fTsPlso637fd6numrdRby/hc=);fillColor=none;" vertex="1" parent="1">
                    <mxGeometry x="746" y="362.5" width="150.625" height="62.83333333333326" as="geometry"/>
                </mxCell>
                <mxCell id="11" value="" style="shape=stencil(7VtJctxGEHwNr4jel7Ms/0MRoiyGZVFB0dvvnWUa4CALk5BucsTcRiPmoLvWrOzGXX7z9eO7L/d3KXx9fnr89f7Ph/fPH+/yT3cpPXz+eP/08IxPd/ntXX7z4fHp/penx98/v3/595d39pf26bfHP+wX/nrB9bqkbKgU/n75JvVlpn+/+fkF8Onh8wVghCV0BqQgAHmZcQ9oyxwCgAVkBox+HTDTEpIDFAGoy2huD2LTcyyNloRvxKZjgJnCDpHT0pp4xFxXsAHqUqMAtKWMPWAsvUozlbIDlLhu65ojBgHKUsQe4Oqwd3WBXcWS+lhtsgHmuqtjQFvCfkk1LEN4DvGd9+Fa4xkgRQcQmwYgNAcQjuuFEwKAJuIbgD4ZoPwAQHOAqMwKQHJmVY4rSx0MqCIhDDAZEEWO2pL2KYfQ+M8MV60UGFC0WUdkgKpk5rjCgKAACI39pstYhg7vUvkJVVkJKe/yQWXcQGy60MiqfCMfKLzT0nX5HnvH1bZU4QcA6n4PLcpqjDKT9sHX2hJVxtU11FZAR7SKytfKEvf58JohhwAz4t5K8IzyQ+5rS1sB8EwRfkh1jc0NkGWpjJUTaGBXwg8xLD3zE1SjBqC5JU2xaQBKZ4AqMwCQWQFoeknJAYp+gjfriZUiPSFJdnIIqHpJcTIgiSJge9iHN2LpxA85M6CLBDLHuSdUkQ8A1O8Kbwu+wICs9hC5eoOZyk2P1a8XT1BmBcUjNgM/RNF2MxqUCz5V+VBJOVo3On5cl5AuZKUu61LfavUKmLo/WNnaWwm0UTKB6Z5QdJ+e63xxAZiqA4FK75si+HtQHQgJ5ABZEd3AQ9CsmhkHZ6W6TMWMPaAtWWTccDkNQFONPawM7wJwsiQiJ7PL4DPHdQYURU4mMwEAVD4A0NySlB/6ZOpgAM3IaODA3KUaSt8q6QVgik23vlp9BVzMgt9INuwRIjZaWMeFC4Aq37UfAIqwa3XkGxOw2jVY5wwMCKIKlOqCqS1dVDIU10pL0nUG83YmsyYZTKm4cA26Z3Vm62PIMcsIE/XdbZ49thJH6wmFCzyVWdcVvx9Yc8AAorIhr1Gz/X2WG0bQ7PO5zTXWjw3UWFxCcqixEhaiqlcRJ6pHb91sAxRJo0vklouRLCufuTJZymqG49xpbkoEz1DZ6TooFpmFWTFPkVnxBBXZNoBlB1AlKbLMAoByHAA1MkCFHgAkUQCghEoAWA/Icqw0QGWAiiUDNAbIwh15WkdoJJHPtunBANXfzKyTAUpxAIBURFRmNUubpwsDTvZA4wwAKoHq5H5YuhTUkMHBCWpBJBB+L5BEsRHr46ox2NO1SkCaHHzIcgkITqdseg7dJrZLXUZ13LW9blZFrRdW3XTVTV7uMrid4J02Hf94xyyb2oCmZh8uGFNyyZi5qubVwsfLiTxlaNZmj0/090k1ns7qSpZ85zUNX/erZIZXGW+zZ5eZjwgmZguHqR3X6Y40mjRpc2NVKWfElvNyO9o5XtJw3bzLJVkW7p9gFVO4DbWFpEObwdWSIs/DbZO+rwFIRWubuH4NQCwMAMnm0c0nA1RtMUBwm1YVOPLEDYDiCwYgopc0SYo8DwOgOqFXZAFI+gmU0AAomcEcNx1AL2m4TQcVfInzwfYgRICaWGtsWmus6cCsilV5yQqelt08cREAQB1T2h5oSUUODWalyADFbs0P7gmyCESew5qmYZaiLuMUHa6OVTXNDGvk0Q1mlRN6dKGRdWgcAeRYEvnkFLGkWpxt2gHySeVz4a0OEWvkgbudNJTvBmRX7rfCc60DRepxmsigo/GJHX5CxdLg+xPWk/Q8ScUY5ENpjXhCJCbQpYRb/S2TsU7J1/QkItxpE3WP6VLh0SomKbBixaQnNZlwxvfoGovUxZNrWEnWGPDVShODltG5RWMgUHQ+8x2ZOJcsft9JBkkPYa5EZi1wuyNZG4VFomF7pDDWIOXqtIl3F0Oe4lXwcHPSkLoPgKmQAXktgcdB2hxdjXIPVl2IQQ95KQiZ2UhWqWsruklDN2mIAf8/aWg6P8jG05hilO2a0LXGQ7yqdOlphBolEHJaeTpnRwD6+hPXNO7ixgYpDbWVRW2ALmnSZL91RKN4QGaC0au8EuS4qh0aK33OHe1HOULb5QE698jy6lfs7uZKlcmDJZGoP3Q7zImp6gzyqCdPd0aXZPcpjUnYPJmTIs9Js8qjD7Q/khhPDq0RyKQx2qGeKjHh4MBXWclGQXekrKxkx7HVAdTdyci3MwFQzBOxzweTTd8wHUzdAFC04XbFYgXcrlh4wA93xWKwaGVlRuUD2B09IWlikpm+2aUmJe0ld6NOn01kd3wzmjxhtbMO6g9FhoYddlQGyKPxyDk9stzD7TrnCrhd5zxw3I92nbPydGJLUrczK58So9oOldOdR7LXy/PfKLFaq1fjjOfFehSwNxCI2WtWicjpBMhyvEfZopzGCKXU99F4SRihVPCBOPMbOVpxGJHrkp2x6YbC75rkM0Z2e+fn9s7PtYz70d75qczuy9BLGqvetgHaadXYe7oU2bKG08ZLlKrJdJc58pBLMi5PJwhVHgjMwbc5c5SX8e0dT9Lr9cXdg7dI59nrkXyBQssar3Tqckl6BiKukcP66tPVypedlTSAn6DNauEdGBB01SDNO5+WGb4oE/RIU3h+yEESLF+X7G6Nrq1U+dJpmWku+NQ8bQA6bhny7NSsNBigZHjfgQA487R7SVpd0fjuV8m/AYAPr2+uf3j49OnlxffL/+c33fHVy1vy+e0/);lineShape=1;" vertex="1" parent="1">
                    <mxGeometry x="282.4296053370517" y="536.6108019736739" width="449.7668017666749" height="192.528258197352" as="geometry"/>
                </mxCell>
                <mxCell id="12" value="" style="shape=stencil(nVjZctswDPwav2JIgudz2v5HZuI0nqZxxkmvv++qHqkiKK+mfXMUrAhgcSx10Lu3p/vX4yG4t/fL+cvxx+nh/emgHw4hnF6ejpfTO34d9ONB7x7Pl+Pny/nby8P179f7yXL69fX8fXrDzyvOiQsTKLhf1wc1S/R/nny62j+fXnp719vjSbxtH0S1s894v7ttX6SVzj42cfm2vVcptQNollqJQ15yf0JQqe02QAHwHcAHSSSEqHNGFpekkRBSEp87+yXJm/a5iG/GnkVcqoTeHhki/tQiubf3eEI4blFiD5hyRiJoVVLqWc5SGMtuqLvsaZ22JqGvixJFCc0NSel9qlFaIgC1NLQwV8p2Xusc4wIoEgMBwOO+ORFVIkSgF023rRK3XRt5jnF1RCRMIIu+zyvIjEoAXlq1UQcGQBB9v4GaQPKaQXVfGy3N9bUNqENeQTU7oYpXC8ik5dCirVmAEqoBqAaAqVQ4oFiA7rhk0hro3EPQZjUAwEpjylK1AE+YnngwABQLqW8AUhsAbFSi5YYeddwls38AUF583llAYS4BMBDnGdNbgLwDMEyjaXk/2BaNew1UhxMqJy47C2gshjoP6zWAu2SncZTCT3BDT0d2AhpomBq0lrZalI3vzSHAxNXk0tBxife0H3o6sLlUh2G8zPObLRoGwE6L6gDgxP0jAEtzyFImTGMD5Wh5YGktSxLX/cDWLraBWbuJxlDKUK2ZAiAFwrB2mWqF2LBTA2eSoOu4RSFkmUxcZPMCcFKYhkNO+qCrckCdlcVK9DH5A0DrJRlkZSP9gJzk/oSIOcJVor2fKN2iUN/BXDfanrw3140munN96GNWKoxxPdGett3rj/ZjL1NhotjIfYZ8nLf29g0uDA5lyjLel/qUKhYYYbnO96PZPjm6cdXqGOSYaWJvGZgu0SRib8cLLulK/PG2hGDP+mb0p9DN5i1jsGciyVlRBXu2CN0sJlb2TFO5+b9re5JPJ2mIl41rN1811+8n9ePshXuKl/S8s8J5yifNjxvezz6SODshpnogQ+s/Pgrt2OPH3y9Qj6fn5+sHrPX/7RcrPLp+7dKPvwE=);lineShape=1;" vertex="1" parent="1">
                    <mxGeometry x="253.0852466339536" y="691.6736473149372" width="470.2732732513946" height="200.05673512443036" as="geometry"/>
                </mxCell>
                <mxCell id="13" value="" style="shape=stencil(lVjLbhsxDPwaXwlKlETpnLb/ESBOYzSNAyd9/X25NbRdUdkJcrN3hxJFDofUHuTm5eH2+XiI/PJ6OX87/jrdvT4c5NMhxtPTw/FyerVfB/l8kJv78+X49XL+8XR3/f98uyCXX9/PP5cVfl/tmHJZjCL/uT6wJxr/PflyxT+enjZ4JQkDPiRKAB9af90NKnHYx9vrwgM+9R3fxEvzBwiUZR+f7fV4ACbmfXxJFKpbX1B8MrVx/UwJ+FMLSRvXj5TKvkETv0GMFECEmkU0DQYiVDJIGa8hWXNQqAGLplTGIBVbIgGDSKKDgUaY5poojmmuduoG8pB6ULpBYwoo0ZHKuEPLJOAMmamOUbJIJ4VUjY5KjMkXP24RiPPoVCOuINmJiowGCgsoTOSwOClwSSePjMGoQr1gGFkyyHTqaV2ZYScGBZQ6+Vd8IkV59mmuTBH4U/ruK7VNokDxFH9ewzNQmEJ1LGetpGB99Rxa8ICm2rO59QcwqPZK3+CRvFTvj8UzodL3AlkDjL/hXX4jRcDP6gW+CtQupdo8XoH/Vk6OP8ZYwE+rF/V4pEPFF/CilZA/Ubz/FfhvDS16fAD8yX1+2MRfwHmz113LL2qAuVfrhj8Z+tOmelTA59LZtcGj81r8Hb7CeCqFuX6BHqofcAyPmrFSm+oRTiCdLZt4BsC36lu34RuuR1dfgRqsxzjVL9Krj+K1s2vFZ9i2y9RfKtQT7d1qM3gIiI81VHEd2AQLOGQtuzqDBDueDQWOctayUUtd5g53htJVbG+0CToZIFGxmq3eJTiHm4i4sSN0YXo7DeIHfRu1K6oDoTQ1PlT45kAYK6c0ONlYTNxMmiu8bNlAKWPiksJe0KZmLxnvEKmNBqaXiEtWLG78CBnLnem70xeYN7tw8cg9ozuQa7vQufWlU2uPqjqeOFMASVvcdXraL2B7F97qZvbQO/Te/OTw72zQu+masQRvpFPxGx71V57ul4YHYsH+7rfggf/c1XaDR/MKey2K+P7A03kFzt/s51fDB+iPu//Y/RvNu9y/d2zv64Cg7PlgGUQlzL0bbfDoKs0TfyzjQOY++oXofbz9+P856v70+Hj9mrV97z9f2aPrpy/5/Bc=);lineShape=1;" vertex="1" parent="1">
                    <mxGeometry x="270.17636941964724" y="570.3105008651678" width="293.7689710248778" height="142.9549439627899" as="geometry"/>
                </mxCell>
                <mxCell id="14" value="" style="shape=stencil(7VrLchw3DPyavbL4AkmcHec/XGU52ooiuWQ5j78PmA1nh82ZVuWYKt/kNXv4ANBogLykD98eP319uET/7e315deHP66f3x4v6adLjNfnx4fX65v9dUkfL+nDl5fXh19eX74/f779++unPrL/9dvL7/0Lf95wzYXYQdH/dfshJNfKP7/8fBv/dH3ejQ/e+TwDokuVALJLMgO8q0oA6iQiQMM5ICYXAy7JM0B1AoDsIllSCq7VGdDoDElc0wlgi0yNANT5edPJU0AOLqQZ0Jx6Aog4Q26uZDqDlAkg6gLbtLo8A4q6GgmgoC9VdZEBgivzDK26QPYQi6uzpTU6JZaOtunZ0mqfIDOE4mS2tFpICQFEFxrOoGQGxQi1LQiJ0Oby/P0mfAcezVbNMRKNaDjUGsepHR+qdzIvqbQRsmcBmudDLbYHFj7ZNUFAJodkzq0AqE6J6+Xq2myGarRDjlXCYLnNDt5FckpiDAHO3egeZPWkdzZt3/MzwAKULMk4I84kE7zxP2GZbgjwVosfAjBTA481fS896ByhRhrK3TWAM9XxibOA0JmWJLvCAHFkj41ajWVYEm24JDs35n0W1MCURoWMx7J3YT6lZO5F7NC9D2bYFnkIKAWdKRcaELUiMUmlAdHMl2bXsHzCmLKV8b3Nl6KrhItbQEtroKdkRAe0YSHHyLgE5xUBhcVoHWS9W5LwiIuzHVriERdRX9UtzM8CqMwAMSIh3hoW6suJElPPKDP1mXuzGWLCnBXz8N8zQVZm17BMz0Rl3phxp+AamaHkseINoFQIWJbNEHF1ZIBjIWD5Yw4gcxaWqLXiHoRLPlU0XE/UbAZFYWwAJlt14+odgGkHXejeAI0YbpehdrThKd8fIZg39UU1BBQSc6pINAZg3tQPdp6hboXXKSAgIPIl1YgAxn0GKGkB8CVJXgDEdAbIsuyB0IBxKci+WmgIWbmQQDw0Kh7sewHEcaVlVjFmAjskrrFWBy9UPFjVhHRcqTg2aoSkZbzBLB2MLGeAzSnEDg23YHUX6wlkLOOCERnTfBgMOpTv4XCPjpqoVrLAmr8eqcT1WEcHyqkLtwTKqDZ8XrsfIuhsuMLwTA7eo1bgHGHhGmE446ClkOS1gh+UeR8e6PCKi0nEJ+3c8OvcTMAkYZj5bDh4sMvUTA19ptGv19kJIlUSHgkhukT9HYrrONphZ04gOJyaKS6LIWzmR0tpt1W6GOw+UnI9CD7GS3409e4+w5jYD1lxHy703AOGR6QsBmpv46kzqy6xSs0kgsO5i+FiOItVHM7yx38cbgyKHllZN2mE5paRR3o7roSRUi0dso64Iklaess8u4IEthIukwXZiqCWz9svZwoBZLxYRicnJBvzbhpkq8hOVc48Qw20Du46CgAyXOpUqc1Lsk+wZnIvxEF45fdKkR/Fzr+IH8XO/6DYqcPZtmP1NHGrHeKccHpTgwVpwz5m0pEmznoeCags0GzfFwDKpoxFnvVtwHDGrvTGJ2HtYjNkVlsI5tkUeT85YqbNiWp0mwFEixRKxz2fQZXqxyXQWQ8QNFoLNIOutxlNqRg56GOm0b4665RC89YATHv1FQsuKZNT6tdaiptmxU/LS/EfKJFZqQ/XH6J0D1a5gzLpVy4s8aYF4Kl46H19KM0t7xHn6xf8M1XeG8bH3towtSfej7B4APbOmRZyIWDhJ3kcw2kDGhJKoQ2A6BfxwG/3TBJiAFXapu/3NdCmz7QsWq/S7t3ZY0BDSxuAKSYJWAbakljZKHE0XbZNc3kiYbmhjLQmMZqRRfXR/BCWhp4f94NndoBCvPBT6m8/GgLoiwCPdxM9sTOFJdjCMSHK6kKLByg7m6c5Tsf/buN5EtXliUKgxV6/z4RHEHnk7WNAwSslFZpDex2uOIMwsxUs4kzdsIg2IYJ3gUKvJzuPgkSs1GypoQjt6p45t0eANPoyw6IB9FjmV0o2g8Cd7NZ0ONsDJN3EW01J8FGQVaes89Wf7IAe85y7F5nbvYsrPnhB0J+csaJJl+df/ClHyCjVDUDf+JiSL7gkVry25Y1coQ/S2ljvbjyrThoyRh/PtNXSZiv0wU4dCmE3nhVwFZ/H9R4LOZ866sfdeFaYVIy0rvJZ5bOMz1TzVBS3IVO5UJf3g5m2aCuqi/6Ihb75wjuJNIr2M39YxrMe1/vj7Y/7E9Mv16en2wvV/f/jk1T76facNX38Gw==);lineShape=1;" vertex="1" parent="1">
                    <mxGeometry x="115.6786464073407" y="348.63389960710106" width="659.8284719437506" height="224.596612154455" as="geometry"/>
                </mxCell>
                <mxCell id="15" value="" style="shape=stencil(lZdNctswDIVPoy0GIPi7TtN7ZCZOralrZxy3TW5fuqpcEzKfo50s4TMI4BEEB3142z69bgbHb6fj4fvm9/h82g76ZXBu3G83x/FUnwZ9HPTh5XDcfDsefu6fp9+vT2fL89OPw6/zP7xPnJD4M+T4Y3rBJPr3xdfJfDfur8wTRWnMIyXXN5f6WRt7CRRTH3CeAjeAU5LSB9STaz2oowA8+EDqGsDr/Bc3gZBIWiB4irEPxGw9xEABeMhC3BYhJcrAQ3HEsQFypgjqUMq8gBkokRxIawWSt8C/0veAXFogEWcIlGwBlFZhJm61UTK5Oy7UAhkD2Xgo5BkCcQEk7EGzBQoGRFcBmYqsWlKmtABg0JlCXqQViakCYgGovryQK9ZGucj/s+qrQadV+s4Lud7dQU4sIAECPiw84E0dFzH4O/JeeCh4U5do0+pX71EG7fiGi1pLnFcbRM20X5WmAs+gG4W4NJJuqVv1XeXhs2qqYaE1rQaEgmngDh5zmSm0QdRjyYNCxGSbZay9CogjRNssw+WkvH1Ue0rtmeKrXgGgSqn1oJEU1KEOF6UtdR1oCkhrHWikFZOUeWLpDExspUERqJVt5/MkYEszabt7FCqVbU/SuZV3zLkYc9TB2MbqYNNetAo3z6I9czNKwpGnzrFszNFgy3YL8yylXt6TMVcYagjGXODakzVH3YStiLH5ypH/rnl9+H+7eBl3u+lycv3d3kbqq+kmo49/AA==);lineShape=1;" vertex="1" parent="1">
                    <mxGeometry x="58.16993995684925" y="190.68750784933627" width="337.2628424223444" height="130.44249003795517" as="geometry"/>
                </mxCell>
                <mxCell id="16" value="" style="shape=stencil(7VvLbh03DP0abwVRol7rtP2PAHEao2kcJOnr70vV0Hjm8M4ZF+giBbxzbsgZiSIPDynOXX7z9cPbz/d3KX799uXxl/s/Ht59+3CXf7hL6eHTh/svD9/sr7v8411+8/7xy/3PXx5/+/Tu6d+f307J+devj7/PJ/z5pJdLkDG1Uvzr6ZcYov7zw09P8h8fPu3lW+gK8qOdy2sMuR7kU4hMPod8XE8OJRL5Gvrx+SWkfC5fYqhH+bYMcFte1+uX/AipEPke5GgfEapQJZTjgiQH6URBQ05HBQ09EYUaEiyphMGW1IL2o0ILlRi1lnWmm0IPg+1BQoU3jBCZWVuI4hSEKEjIgkvqzPEsEJxCJQq5uz30oGQPOQVNqJDIHlINQ/Ac2MFZbOGm7eCId5sRpaAC24PU0GAPdQXsbYXN6jv31sr3AApCl2QBrEeFQeMnK8pvZj5DJIgGpYhniBGPJjIEY9FWQhWQj2T9zY6ggDxz7F5DOa6fR/9QPIBBEXUMRHg74ULwSKKlmCOmmpcwkLclNUgiaf1ye8/FZZ1K01rLIR2NlAzIySbKQL+eZiIKlqhSQoVC9pAtDfg3ECslixPBPbDUY4E1wEqNgmpd79/kS+gM8RC0Z+iQUxAESJNnWBFDySjPXNW4SEF5IeuJC5538sw+MQjYJ1P7WBxklGcpx8WNySuXTyifCLSY/ED5SMA9On9IYXD7K8p34tF2voLyjco3t55K/acPJ88CZgHzC9eT3PMNWxmZXYliH1/Eni0kQAgDLSIvcR3PljqEOrQRRaCOeWOfZ4RiQHIyysJMpEgoVKhPTxA8LkntEYynZbSStlCIV2eXMHVwmOtrAVuG5ZQlW8qElGyBTA7O3pCPnj3rEkZySmhH1yuFv2GLxE2hUmx8TkY7Bcb5zZeBaxqpH+QcLDwrmJUzEaOi8fiGGqmVJC1SsCkI51JhHJ215gWxJwkTaruqVF4XW9/Js4SZMeMbmWysosAzs9qw8Oc393xi0I0O7J7PCseBAGmlZ2fVRHEbGJQ5GmTnI+I1WdTwrJroxyM2aphZLCsmtVbWO886IlA3tkbd2pgj0IrWV9PjrMcBbtGNmTCFjEShC2e/rsYxhcbqd1012U6BpTZTgFLWFFjZYgq46UTJy1ToqJCYlVwryBSURM98w0CFys2qGRUa30N2CoyBmQIEULez55sGiDQFlhdKxsJoKrA9ZAS9a4WSnAJzjej2oNSXtLglVVpJWUwnWFK7IiUD3jAW2T3DJahoh1BcmmT4GA9jKyhvY6vrK1rZzZLhwM7xqLQCNgICndRG21+uejR5Bhlb9G7ynbpFwmpnyjMDYfK/eL5gn8bkGSAJ9oEG50eC6DLtQ9ej7vmsehHXB2qr3n6xPPPQW+thjbtb+2VkyuwJ/lY5uXDnVSn4CnZnpzyj2KuXsZNn1WZd1G8nr2w9CesWU8iMwkfkyzOCGYXf7j72b2AwN1xvlhPOCdVOgTFOY/iIWo3mJ+N/HoZoLzGuFe/imFV3vWDjzhQYK5/dSq/A31ActDBGaArAOcegsWMK0HE1BQbWU6Ghgl68IaECqxXmHiIqsO6RKaiiAiNH3XU7pgKJOFOABt6VguLt6dWSFGvgq00rlpxXZvUXnBcHp9iVu3INXe2Wlzqf6wldubeuHtPLA0i8wkWIilPgvoTZqtNb2uneLqYHj+nmfInxkb7V7jsFlqBvvoFdWcw9OIWLc0ArDZqjb5zDoF0nf9K766f/SiPeAJrGc1B2uMGqMMtyyWUIloN8yTPJKtnDzNTgfo2yf9+HnXmUVTBxbXGnUNltUFrAtX8DbYf7gmGQkHstGF4Lhu+5YEjYhRiVwm/B66lReAbBTo0V/ExeXNNi5GWys5DHExZ+G9SwrzgiHRfLGTNO5zM1hnMwL9YrvWNWI4XQqVGKKmo50jXAmJVKWu3ffZuQ9xVfu6/ptfv6P+m+JqxIzEoM5m+0a4XeXVqINjiHSK00h1KP3to6zVSzXXuE+lbpZMEcSjtaqW1FzRlUAlloiTY+RJHNt0iz/0DvroNetBd07tp5Nwkvzmqj7a1tbniTr7QDLusKa5Mv/IIah0Gq8ns5nP+sfBinIp2tZgFWQiLgVeEHLJjarApgeURck2fel/MLdgiDeSPPKLyuHW4KlWYqTzFK4XMLCUspg8DKBx1wD5mm5zmPAgPjiQ9rFDdhHmkutD0AQmqnU7jTNY5vMESjtVdGJqmJjrTMOV+YMR2rdXWGLsDccuHN54jFV070Vrti8TUBihWo2LZNvM/roidtc7YncPQ6S/g6S7iX/75mCQVbnBf2zM4/M31+xf5PUg4paU2I7AKMNb1sB3gClQ7Sz8E9F/J0Ur/ijfQcgGYUZ+ClxXwD6zBlTPq2BxaVz4MGO7MylmAlOMalUOI4ti9ttnZlpzXF7BweD062au+2QsYEaGBPbwiqo9cUSp+59JZh+RdQBeW36vOFZZedAXm+ZnSLSsd2s2Ls99UbPcv3cO86DcoIQnbfJiUaa5bv+zEbiF59CITfiF2MfyYcYRV+FTyDvaICS8iTCjZUuBrDBcdu/FtDN5FqCrQHIZh05udSzPOa+9Jl+7butmvLalHsFfind8UtiY3uPVc1m0KhM6ZWdcAcgvAZ8NKQSpm3Mmo3GTveuHCzuquETn1PK37dU3lDIWH4KJ/sGFj7ZloqWw0CH7mmK4CBBodQAM6KkyDC16NYdQkFbD/zKpyLKF5fRZpmp3wBedbfnPIV5GmV6UbduL9l192MFCem/TPIMzDNipV7pF/DzoSD9mG1hNVuEffLLjT/9Ufhl/L2x/MX6O8fPn58+oB9///4xbr99PS1e/7xbw==);lineShape=1;" vertex="1" parent="1">
                    <mxGeometry x="46.377264216433105" y="306.68002025659916" width="393.61657907369204" height="388.5952730501342" as="geometry"/>
                </mxCell>
                <mxCell id="17" value="" style="shape=stencil(hVbLbhsxDPyavQ4kUs9zmv5HgDj1oq4dOE7b/H2oLrQ25Q17k9cciuJwRpr44W3/9LqbyL1dzqefuz/z82U/8beJaD7ud+f5IquJHyd+eDmddz/Op/fj8/L79alFttWv0++W4e+CKwkpNBS5j+ULeRD/+/J9ARzm4w2gRnBUAGZwMQAVmRUgZCQbwBqQCMkqKcAXBcjJ3KEEFFKAUvqem4BMIN2lmsD1a0DMyLpL3jk49zUiEErWWxRk4xBU4ZMGrCk2Ab7A6UMUARg7eIfsNBEVJRlt6ul6fIzwRkUVVecPDhyMghLiMKwJ1QBIRV7vICnYqEgKCAMLyGTwHEE6PveebcZLA6uebWlyNCZPKBoB0mVj8toQVN2jCmepR8ZMA2QUszVH10leef6PolexrF0SQRltanLU8mmSNQAi+Ow1b8EcvWYpuqSr7WxPRu5NuQFkAyC2GHWXmnUaADFe1js0czYO3QDlDuAN5qjTtPJQQQZxEXWIF+otx0DSJ4i1K3Yz/m6QQjHr8XA6P9v6v/N58QtviMf7LpUbv0iWI9VuWCsFpgeLFge/kMvTYEz8iHRB4pDGSESPWId469YRGQwWTwj2RThYdkZQN4Isrm+Nl/lwWJ4qt/+PbxP5tLxr+PET);lineShape=1;" vertex="1" parent="1">
                    <mxGeometry x="424.0553535715155" y="484.57163364448184" width="8.368150682065107" height="8.351964712459676" as="geometry"/>
                </mxCell>
                <mxCell id="18" value="" style="shape=stencil(7VrJchw3DP2aubJIgOvZy3+4ynI0FUVyyXKWvw+YKVJDoPu15hQfdBu1HpoEsT2AfeIPP+6/fL87kf/x8vz0+91f568v9yf+eCI6P97fPZ9f5NeJP534w7en57vfnp9+Pn69/P39S0f2X388/dnf8PdFLlaXuUuR/+fyxLvg/3vw+YJ/OD9e45trfsEHx20fn4JracEnlwng2YWw4JtLYD+Cb3XdT3SUgUB0HFcBWYGhgKdFQFTwEQiQK6vK7B0HIOBdXrfEaay5bYTi6moEro4KEJD3rafKojRaQXQoq0AZWm0L8HCDKcCuAseI2dG6JRIdkGd4V9djJXKMXCMPT5uWzq4CO2TSsRDIRbBCLvpYG8ZX51cV5AHwVcEHgwdHJHiKt+HZ4PF+Iit8AKEj+BQUnkDkdHxWeK4Qn73CJ/z+rPdTkENsvL+CMOv7X6OmOX/T+TQXsL4xKjyBGOv2TQrPaP/JRZN8wX5S1akxBJhLJXEVFWFx5PtNAUmEbU0rEsPIRSm6WLVABolLNlDUCmmkgU2BOl438Twy2Sa+uLD6RPAw9UpOaRofgcYmBwkeGlkXZMGjgplNwReGgJKKq6sBhDHA7Rg4zNF6Nw1aV+A6YBK0lddvR+RG4HrvqCCJJ2QFR9mwONLBi+pjsbGO3t4GYRhwOSpwMuLk6iTTCOVtfB1O/vr+BAwlNJK0pSqKcz+86iqTNCAQJPWsC/QlgbXCZBdToBz4mmVAiJSFQQqvKFYFBvbawNHD7Cw8ePVO4WiIwomJVbWTdB2BAjTp1PSJ4DLifOSCcqIMc5stMDnAClyEtyqBybm2s3kaDGAIFCkI4FRbHBRvcoIwqvK2QNM6VDlWcErBe5OGCPKsJrRkLatN6iYSyKbQC7UAvtekLVudW9Rq6Jh4lOnXsjHV2pYgk6vbKFV7AtUIVCxQshbISAnSziECyHRdwGsBlAO6gNHBY4FqLIf6rH6sRqCgFVj7axdAhmPdpRwLUL5xS2wEoNKsG5WjY+WR6d5qOB6J662uwSbkDpxPlDY6VJRo5FiNAAwgM2t5S4xWswSOoGrO9cBdi1mhIK1NxhcBxDQ2Y5QPBMwK4WBLSod6mMmKFqi32QF3srcL5NG5ToEy+MReDVLzHKlBqC9qTfMr2SQiZM1OEyquvFHz80pj0rZHBuJa5UqGoz6hG2k9pdxG1G4TmqItnWf23KNMigskPIgTUpbXFRLBEA0mV8YKV2DdQMY4KvcOb1UaxDC2uINXR8QHYztdr5hggxqCXqD3Joiomxae8EBX/q1aN2lOkMoioCePHkabtFeq2SiDAu5NOXxUeDSZanrIUSH8fcbxPuOYnvDrzDgmSbwaTzbUeUXdUcgTBvvp00bV5aQxUt+dZ5JeoQDPlBZcX2IQdB4pD9aXCQ2h05ixXw3p8ZD7/RLj/RIDnM//fIlRNK+UAEBXzpnGrORqop9RiGVzKVHg7DEFM0pk2HLErC8luhHQrC+OejVJUIR5OvK4Vp8CeFAmK6gixjgOJHOpvMIFUt3kNUcRHQL6toB0jyKnhGZ3iXVqoanVnoCK5YCb9r6Cye+I+YkObKgQSkfWlzK+yW8uqmtz2AMJ+VeTPvyBR8frD0IQcxW8snKAzbS4kQo2D9uZji8Kj1rpjq8Kj7JF339Q+IjipupBqIfpLs5q9IoP6NOOqj3Ow0mX4NngQbKLplziEZHgk8GjK+FbP0A6xMuP16+dvp0fHi4fS13/X38dJY8uX1bxp38B);lineShape=1;" vertex="1" parent="1">
                    <mxGeometry x="204.0259825581993" y="222.66214155995817" width="652.7375400636174" height="381.12032208147093" as="geometry"/>
                </mxCell>
                <mxCell id="19" value="" style="shape=stencil(rVfLctswDPwaXTEkQBLkOU3/IzNxak/dOOM4ffx9oTqKRdDe9tCbJO6KwBILkpPcvW4fXjYTh9fT8fB182P3eNpO8mli3j1vN8fdyZ4muZ/k7ulw3Hw5Ht6eH8/vLw8zcn76dvg+/+HnmSeZhGcWh1/vXyiFPx8+n/H73fMKz0wldfgYqQFCXUYX/Pyl3MYnKqXDpwwDUsrS4XMmbrfxUajUjlAKZRAQZ8q9QlpIGWQQKMSOUCsluU0omWrrCC1BTZtS7XNolkMGhEoleMK7DNcJjZg9oSkkFJeDwnUzQsue0IBKM8ElbbKClTaCak9oFMDC2bBkT0hIpUpaPKGiGSqFgdBQDurteZHhOsHWVTxB0QyFwph0AoTsO4BlBUMyAxdPQH4wQu4NNBc8Kr68pLgiCPC0Jc2DgRpK2oajJxQ0gw4qmUXRDJVEhxkirNYgnlBRSG3pcyuVGHWNNvQlJQWEGKz1uT5jaeEuUNUTKo7J14a5Fuvahi6A2vcl4rXlUEjqdV3p8J8YJVEadIrA1lL8vtsCbK+2sbs+oB8Fdj2JxcMf+6jCjZ19v88F/n8opZSoAj8k0t5wdjSIAB/bsM4UQV2InXP6Vhzg9iPsBQrEIF8Rn3BYNotb+BI9HpSQpGX6f/y/ye3jYaSPnSR9PFCfvNjwgq/AyFbR7lgVYfcyfHQmIwX1MOKZItjW5njY4QtaX8u3118Wx93Ukx0eHaj+jreHyzXgabffn28R63F/bbBP5yuH3P8G);lineShape=1;" vertex="1" parent="1">
                    <mxGeometry x="529.8159212129776" y="745.6698354480498" width="110.59813098835502" height="145.48142892241322" as="geometry"/>
                </mxCell>
                <mxCell id="20" value="" style="shape=stencil(lVbLctswDPwaXTEgwec5Tf8jM7FjTV0747ht8veBojg1wWg9uknUrgAssSAHuXvZPTxvBs8v59Px1+bf+HjeDfJj8H487Dan8axPg9wPcrc9njZPp+Ofw+P8/vwwIaen38e/0x9eZx5TlYnk+e2ywOlj4ecM34+HK7iLVLnBF0qyjJdIHBq8F0pxmRA9SW4IwVEEhOwotRESk4RlQslUa1sCkwMRaqXSRqgFpqSEGi0hF6Aqq+qtrPoPvhGiWoJ4TPCWEEFOU9VdSp8rSwSzEVNMsBH6ObQyXemwxPCpC5EhgTuZCtK1dFunZQFDKKF0KQW0EUoQS3BIpj6CrqCi+xrUpLg3rEqFAnD1N/tQSNyarVaCx92XpIuAm8m2q9aAI1hDqElx81nLfQm9wtUe69p3X8Q52dFUKeMIqTNExRGi6wgVEqQbNDcIrp8bKKXyzeyDRa8l6BHh25SKowBqyHwZQ1+HkKMCDBH11DLHnBADj0qwDvIROkhP6tA6yDEcTPq1rdnB6c3kq4EXIKkesdnA0VhV5xQDDxjuDdzD3I0vGXZo93emDHzf5c4UsTIWLhAuNncHDgO2bYPvd0zJWTiwogqRV8FXXTZvwvXh/712O+7387X4+ru9B+vSfIeW+3c=);lineShape=1;" vertex="1" parent="1">
                    <mxGeometry x="363.98546924975335" y="210.50508068983004" width="440.1622770579893" height="299.06270759053496" as="geometry"/>
                </mxCell>
                <mxCell id="21" value="" style="shape=stencil(lVbLUuNADPwaX1Wa0bx0ZuE/qCJsXISECoFd/p7xugwZDe5sbo7TkltS6zHIzev2/mUzeH49HQ9Pmz/jw2k7yK/B+3G/3RzHU30a5HaQm8fDcfP7eHjbP8y/X+4n5PT0fHifPPyd7VQplsnK88f8JpPqvxd3M3437s/xQsU1eB8o+HWD4qmExiAEYvCFFIlbRonJy7pBKORaSjmT8LpBDdHFxkA9pMSUU4N3zMTgC0xR2g8olYLw4i1eICEbQFnKuILntgaaKQaI5xafSPI1/iN5mB9n8IFcgvlpK1xlKJB/NPn8UuH/FbjiM+SvxeI1ruMdObX8I4jXLdGd5SdA/8Hb/EeMN/4TZdBilY+JN1MBenDkO30WyIdN/utYgnozM6XiFeonuevwoh0f2I+eu3hxP2abT4V66/sxQ/7c6wHyccZ/1RvE2/rKBf+hG7gX6tX1F+7H6/A+Le26GJRAGQguVL23GU0KOz4FuycjplT3pNkBkigBSjXlpsguLy5+NiiU265hOIQqXsXg0ZCuPeIsHi3Jacd1eHR6qJ3qDC+Pis9s8ApEOu3oNj+OMvavLd5TuoBvp4osY+nnochd2wdKYIt9D7UvzVECGp0CbsdQgl08JbQNOC97YbVgV92WF/H14fuQfRx3u/kOPv/fHr711Xw0y+0n);lineShape=1;" vertex="1" parent="1">
                    <mxGeometry x="647.9254480231643" y="626.4872314925371" width="357.0779833817314" height="70.45674147807017" as="geometry"/>
                </mxCell>
                <mxCell id="22" value="" style="shape=stencil(lVfLctswDPwaXTHgmzyn6X9kJk6tqWtnHKdt/j5QVToiIa3HN4nEEgSwXJCDe3jbP73uBstvl/Pp5+7P+HzZD+7bYO143O/O40W+Bvc4uIeX03n343x6Pz7P/69Pk+X09ev0e1rh74wzZM0EsvwxDzBx+jfwfTY/jMeFuacSG3NDIW6bG5nOjb2nXLbtZTn27fqWmAEgU2n3b2QEAFym1O7IJipgS75QsA1Algh+GxCZfGoAgcmYbUCSoNsYogQdtgHZkecGkCIl4KE44jboXMiCupVSy1QBMsIOAkruAdYCZjDXwi4Q/oYL1wMiBiQVRAbckOmgAAV7cFEBAJlk2pi7AJmyymsBeRVAvC9oYXNQacUevPLgMSCoSltEV4lBARh7SF0dJG+I3yISqQckfCA6nZwAKAbJSVAAIBtT1tWWMiZfVh4K0O6JOYqtBqn36hl1OE3aRcB7yr4HJKB9U5qUB9RSpkIoD/+1arPUbdCLPGyyScsACiLXGJdBYIBWpoh1406AodwSPF9rud6ELJmWrynVxrfeF5UcS5tDBA9SiFb7pJEiOfaZXJtWJ3QFQbtEseWGvert+nUj9TEYKRxqc1d5vwJc7fYbZ66nRrxxIbNtFWw9UKvm3Gu3IQfiZXK2M7cgn9xTwtSBDXPuzZHKc39NYnhmlHZxFdgtc9+ZB3DmJVTXmTuYdxs6c9QBuTbUL3MDNxPVJR6cE+6POpY3dT1lzOD7XhQ3zeXj6/HyMh4O89tnOd8/dmRofii5x08=);lineShape=1;" vertex="1" parent="1">
                    <mxGeometry x="562.1767488474954" y="460.67348199547337" width="331.1946797823596" height="389.752256350891" as="geometry"/>
                </mxCell>
                <mxCell id="23" value="" style="shape=stencil(hVbLbhsxDPyavQ4kUs9zmv5HgDj1oq4dOE7b/H2oLrQ25Q17k9cciuJwRpr44W3/9LqbyL1dzqefuz/z82U/8beJaD7ud+f5IquJHyd+eDmddz/Op/fj8/L79alFttWv0++W4e+CKwkpNBS5j+ULeRD/+/J9ARzm4w2gRnBUAGZwMQAVmRUgZCQbwBqQCMkqKcAXBcjJ3KEEFFKAUvqem4BMIN2lmsD1a0DMyLpL3jk49zUiEErWWxRk4xBU4ZMGrCk2Ab7A6UMUARg7eIfsNBEVJRlt6ul6fIzwRkUVVecPDhyMghLiMKwJ1QBIRV7vICnYqEgKCAMLyGTwHEE6PveebcZLA6uebWlyNCZPKBoB0mVj8toQVN2jCmepR8ZMA2QUszVH10leef6PolexrF0SQRltanLU8mmSNQAi+Ow1b8EcvWYpuqSr7WxPRu5NuQFkAyC2GHWXmnUaADFe1js0czYO3QDlDuAN5qjTtPJQQQZxEXWIF+otx0DSJ4i1K3Yz/m6QQjHr8XA6P9v6v/N58QtviMf7LpUbv0iWI9VuWCsFpgeLFge/kMvTYEz8iHRB4pDGSESPWId469YRGQwWTwj2RThYdkZQN4Isrm+Nl/lwWJ4qt/+PbxP5tLxr+PET);lineShape=1;" vertex="1" parent="1">
                    <mxGeometry x="784.0553535715153" y="743.5716336444821" width="8.36815068206488" height="8.351964712459676" as="geometry"/>
                </mxCell>
                <mxCell id="24" value="" style="shape=stencil(lVjbUhsxDP2avGps2ZatZ0r/gxlCyZQSJtDb31fbjNO1nD2Ut7Ac2boc3bxLN6+Pdy/7HYfXt9Px6/7n4f7tcZc+7ZgPz4/70+HNfu3S7S7dPBxP+y+n4/fn+/PfL3cLcvn17fhjOeHXWY4LtbxIcfh9/hIohL8fPp/xT4fnFT4HUh3wmUS28aVSLgM+Rqq6LVAjsQwCplFlIKDEowVcKcVtgdYop0EgFSp5W0ALCY82ZyrASaqUR4GSqLZtgRguXu8SkigWcIWQ1EGg2hEgEBq62y8CuR9x3U2JsruhUgRG1EJZvEADNojFyd0gVBGZlJoTSKQJCOTuxItbtVt1XSBQSz4OCrhhAjLeUBoF4CVjQhpvsC8MvGTncRvZp9BoMXKON2RTCRhtKZdGG3KFCWFxVfY3IH43JnVeYqrA6Jb7vy8C2o/YuiGM5JMGE8jYzzP5gJeWhBzjsCgJ6oxRw7lVIwlwaxJqo1vVMg5Emq2qjKVvVUiuFxru1Llc0aiglKM8Vg1NvT5fxU91rFmDgXiOYxQKNMDK3ni+pUcCPpUeohU+Qrxrh0s6o2QjbRMedSuKPOkD7K3EyeMZtc/e+lZ4mMqUxOMbxk95CdNs0kf7QLBlL3t8hf6JweMbymLS6vGorojvB+Wd4tu1XesDioRQUY8XyP8y+SdBfcqkD+Kn4Sf+oCJn+OrxGZ4vE56hvW3K9wDjpVO+BKB/7Z1xjQf1yvimk/4w33nCY/77/Gq9xv9n/ir0T52mD+0nbOk/5btgez+Ej726ruo/0id4/lh/iWig83OE9eAM+LA0SNfwBBpgPVjGCChmUJpSwPYLxnOEG2KbwuFJ2I9nNh2hJrxM0cFHAVWJZk5064olHtq5MgXXVxXOHaZxccTOlFDjq1PnfmdvjH77sLk6gxtsrpbpBjSrLK3XFevYy9nWbuC7Te4j4XWBeKV9I6NNwC11RpYGjDYF8mi0bW2CyBd6vb1wiWEFtvPcsmyjOWqZy5451QwFbrVNNmUvgFYu25XLZAOKg9WIOAoIHqtV/fZhcRDQx62o1IkaaDG1ouLWlSywzLTmR6lUccY132tZYS+3jHPUYDMaka96L8UEp9Mcep27uBXupUt7cBr1/r6Fd+sH93l+C+/Wp9jbyyY+ODxKBcM7Zsc+T27i/floezI8e/3R48Z8foB5s+CLwxfQzRf/RIdPIJENX7w+6Alria8/H/XyhT/s8SADPvra+j7efvx72n04PD2dX4bX//dPwfbp/Iycbv8A);lineShape=1;" vertex="1" parent="1">
                    <mxGeometry x="491.98043669422236" y="513.6859294286335" width="578.1368189504053" height="256.9941669936593" as="geometry"/>
                </mxCell>
                <mxCell id="25" value="" style="shape=stencil(lVfZbtwwDPwavxKiqPM5Tf8jQDZdo9vdYLNpm78PXUOORcdT5M3HjCSSw0OD3L0cH54Pg3cvt+vl5+HP+Hg7DvJt8H48Hw/X8aZPg9wPcvd0uR5+XC+v58f5/flhQk5Pvy6/pxX+zjym6CeSd2/zB08x/fvwfYafxvMKnqlKB3dU3D5cf7tk8A7gxVNK5jiZ9/FBj186fKIS9vFR13cdngO0NwkV45+IHRRIeg9JoRj3CSWQ702OQgH4qIq1IQt5AYRKOXaEqkYDryqhGgI2mt0S1oWRKCMjKpU+cDU3T+8RUh+IWihXSPB9IPRLRDvoeskSKvJrIR83hAwImXK2hAS0oQRJ1uiKjM4235TgQOQ0TJVt4KAN+tvEIeLA6ZGqVV8GOaqEYLQkMKk/lLMieKTvQmJ28M2qPUJhuwOqY5P4siUEZMMihJWXPN6hOhsHBtL4PEcFp1wNNkcDEpMWmk2OBpyjskkIwZGz6tNCgnM09ISVH/bUVDd1A/W4ySnVEjzWK8eNm/AOXyRwi9PSIlTyIBDFtx61NKHaSs/nbc63lGyEEGCSJt2hD7X2egaFJjKlnqCzChJTcFau2tsd0LceQHqj2bVatTfNsHErbu22emvUgMXcCu/qOMhgtjFTfASqYOJg8R6cx226FUw1PawRKSxgrpXolXNA5mtkonU9hve1LsEBZrN6bDPWDpz7jA9w2FHPmJGw1e49vwcD92j4IjYTKixXXxz4/wvXh4+7xdN4Os1Xk/V/exfRT/M9Ru7fAQ==);lineShape=1;" vertex="1" parent="1">
                    <mxGeometry x="981.1699178674721" y="407.8776432809998" width="161.76298972277027" height="70.83018008717454" as="geometry"/>
                </mxCell>
                <mxCell id="26" value="" style="shape=stencil(lZfbbtswDIafxrcERZ2vu+49CjRdjGVJkWantx89w05ExX+RO8f+qIjkT1Ia/NPH/uV9Nwh/XM6n77vf4+tlP/gvg8h43O/O40WfBv88+Ke303n37Xz6eXydf7+/TOT09OP0a1rhz2xXK9UyWQn/nd84iu7/i68zfxiPt3xZPi98pVy2+bJ+XniJxBkYOCqhMfCRStw2yELc/kPIFGTbIDHF2hjECg1CIY6NQcZB0h271ocilIAPGnSf2qg6qsCgkvctn5c3d3lHofVgyntAvONWFczEvG3AlMMjf8AUvOVzQrwrlg8V8dztx4GArt6tfIG6Zis65ZGGmCRb3gEJqUZNwjIVUDZMpVo+wwRLt36GAord+gXydj9lycj9CrCCU95DXpzlE9BDz1dioDdtKtXyAeTLLdm51TOoF41nx1fIi3Q81H9JHQ/1E7t6RPnlTj91UchWvXT+CtxPX48V1outdx1UsP9It77A9W0DzZ/0t5wtn6G/j/HabYy/kQTka2qgJsEaMmDg/aLfdYatPeb+lEwUW4OkEgItMWpGW43GDHtuZvJtEoIeDZDBWiPrWSLAKi7ZjjHxy3Hk/hxOdtKrrEGQNKuxrWMH25DyqQ0qwzE5qSYZPoK2Mqk4G15ARKcq8YZHY2yqQjE8A00oXzoe7V+nesejc5MenKrdP/K3UrL+elCWtfb7Tyg+6ynpyqMiuzmGXQUkOECPne8/5fXhepl4Gw+H+S5y+91ePvTVfHHxz/8A);lineShape=1;" vertex="1" parent="1">
                    <mxGeometry x="825.9705015774102" y="402.6740457819078" width="225.8534772354119" height="220.1484416080832" as="geometry"/>
                </mxCell>
                <mxCell id="27" value="" style="shape=stencil(7Z3Jkhy3EYafZq4VhR04y/J7KEKUOWGaVFCUl7c30qPq6crM+cA6eRTRt2Gz/i4suf6ZQD+lH377+NOvH57i/tu3r1/+/uFfzz9/+/iU/vIU4/Pnjx++Pn+bfz2lH5/SD798+frhb1+//P7555d///qTPCl//ePLP+Ub/v2Cy2Pbo6Di/p+XT0raev3fJ399AXx6/nwP6Fs/A+YnMSMg1RMg9W1EALRtKEDYRkFAHidAzFvqAKjbaCdAqFthwB/fdwDGFmlEZWvhPIUt8PP7ecr7scr+83nL502IW6Ln556W0/O3JXvr+ZTPC1S2HAAQt3GecJxTSggo5xGlslV+Qzxv8tyUvCMgpLNk163xkPbzJtey9cUbzpNuccskRhNwlrvWVqsUzkPq+zFIHxAO1boBwhZInYMe0nxDpCHNAZg5DND/qe3tLEstbw3mkNqW9jPgNkgfULRJqvMrCJC1eNeEspTStp8BhQ1AilpByxwkaJwAggHQssZjxHeARpOeJmJoQKV98ABl8YauAfnqkBJIqwuI/Aa7SoEnbfchgF0SQNKAfTGkbAALWSpXAc0AeNJdDSmhMZ4KpN+Q+Q1VO8TCtjWNI6i4AfoWyBiHrSvrvW+VLF/WHkiMAMclyvLVyl50aA9UB/qHsuudnpavgRGYgHKOG6YHajAHATQDgFUSQNcACk0EMDRggCxNQFXmflrbq4DAQ6pBAyhkdd+QQOOcSU9Zuras6RDH7904VlFHNBLqgwCyAYAhE0C68oapD93swyAFals3byDrPeNopXFTgQq9IWz1vHG145CSGdIMEhsZ42SCkxnJwsbN1KKfN25aPhKNWLeofFzeOmzcTBZUkFgC6sPMRtpZ+GZSV2GVwjCAhlGlAIoBgLkXQNYASrEEkDSAXJYAzqskaeNi0gZAMZ8LoMjYBVAI50yaE10XQD7O2biKXlQAVQMoWXdkqWKQKACTKRJgirfKsiaARCOGY1/vNw6kNebDkt4AA1Oa2A9hvovIyJAJRaIissFBYtEsS83bABWdEdlQtnXHDCUnHXu3ik5xLmI4D6kHZor6McUboGGwnocGjP1gRt4CKPJqcKwhgGYA5LKGoZZmcMJe1AIoOBHA0ADcBw9Qrg6JQgcXQGGou6wofN7GURgqgGwAi2VNBrCYQ7z6hv3SHLrO48ZUKQ6wVJY1Oqc0WdulMZgj2zWpFvb5EXMtKi8bDfMBiX+UMEVUuekg1Jh6xTeEqA1T64ePcQHVBOs7cgJRh94zd6XIwcT2hbO4/WAZ7/wVBUu7LgqIQ8Tx7ME8Dwt6k4Db8wUNvfd8v/j97eLzFWTUzrdshb8/6ucz+Fq7XwUJzV27NXkerOOuyw3yPI+nXfz+YZ6ngOrweLfn5ycgD0U7qJnHkc/smgAQtojSkWAC7XQYGR+QdSlAZkzpSNE52LTF5GND05Z3ugciV8ONlr8ZiX0blFLNNPM8pJkWUikw3FLlOzNEYj0Nr2Zj41Y5aVPJswDIF+y6SlRudOtbAE19LtLzoFmPCUD3ZIx74ag2Jh2ZCwCs71SHYYYUaNLdMMqRCybB0Le8D1KS6RqAgfZu5pDQ5UhuvWsAqej8bxVCyicg3tMHa5I74SrVrs1e4ci8TS9jeHeq4/aoaUOZNKxSN5ZPADAHifTjlX2YwVkwKkqGbAaMUS1rQGc7AdaQEV0lgHIV0AwAZEkAXQPIgQpgaAAV1F1AIeu9myDmlca+gKAwyUdQIOZOg1IYd2XJ+Dl7F47o5k2AMa9UWXLkLyAHMEwaNl01aenM0rKhSyk+F4pARQ/5MLi+HRimeyKicHTDpE8LXcg07driS5sPDKlVbctSw3S4mXYL6RQAta5Fh5WpYrghJUYFKEjIiuU673TKSMhKnnPe6ZnuYstI0OXlFLEkKIvYNIAszZyi4gAmAGvqSRvwxCFTSmYfIpL7AigaQF0sKTlzIJ0WgFnWHcQ7GY0TxpXoUg9AhVMXQLVcF4BBmZ10QJ12ljVgNO1sXMDEzxGNgDqdkiZ7BED7kHXOIftA4l0PP3snGrjT/ah63hkBCixfLemdmaHMbBqBoixfZfYz6CLLNAsYTQddZEmNee5wGMZ7AFG+QcfrqXHfqAfAJsegy8sTgA0dHqBQ75sHqFfngD2IQdeupOB8dR+IOnR3mvr3XFkavNOqNJsaE+MmpZZlJae4H9W2O32gnCMZ4mGqKEW6r6t+ZwTQkFWdBr3W8b/TLsWGOYf4zLNtFaKADJlhBeOtv+gtWkDlTWGaNhA+ASQNoH2IXbNeE0AklgCCBlBKLYBdA5DP8QDI1dshsQI5q9SQfRRA1gCi9wVQDWAxpG4ANOmhE7/VHIamyFerZA4irPbBAywaaywAZcnOYS2tQwNW+tA0YKVxl1U0myERmeipKNU2fBVdvMGq6GKVDIDK/L6KUv3BTrqh9fZVdPGGYgALFW0GsLB8lwDJlmYHNgeJBzoD5FgLZVn2mAqf2RAvel7WyCSC+GmToRBNJpGAcuyJA6xdl4LkoMoimlE5UEXb+gjWH8H6nypYz2bSRFNItmuSVzyo0g+S7k7jSPhSNUNKyEpLfq4AcdXE+6C8HpTXn4XysoxuwIjM4YzDyrZqVppbBRzem+sPDrOesNHM4e4z2lanOsAH6Jz6A/ezuhUOKk25NRTSaanSqFUa6OO6aSnMrHHDKFDO2L4ntSzTTI0V567PO+SOXSSPevABeNSDv2vv/u/1YNvxwOfEnZ6KhE7I7dqgsM/pC8lYcXY6TzKmEE5vS8YIyOmeyXhmyOnPycgjOB1Ama9xsD1GPGm3iwk5WtsnlTDncDqxEnZsO71eCScdTWeidACBeDv9anF1/kx3xEX07dJzZwE0advVx11ME6D8oggLtzLqzkTeh2AOVciJHnqD4XNkSIv+TdNdSb5dSDE1h4A8c7B2id1cKJq5W/h26aNVgMoHB22nbsa8qeujvXlxYlqXafKit1IH65kl79Ga/2jNV8+/q9b8/Sgv3BkVurLGxAl1x3OIVZ+crwOZlWCuxGkNBVRO+5zf8Nrb5s+g6l65EdDwOieWKr7BHoqaISISuPbY1fIOrXjethlTVhpS19TkKMzHPk5GHpH342SkBby3k5Gmfj11eqEPyo/0BfNedcPsTJmw7JP0TjcumcgBbHV9RuAmFnMuZHGh2es9ezdjP3BZ5Zi6yncyKpAchDdUDLkH56h9wyKlnAAyESQJ3+OuigPwuKvCAby/uyo0oGG8LZe9GLaUAlYJf1TEx7f0SKObSlS5fS8lnZ3XRQWk6esrK99wI6T22QhU7hjJhkhvTH1m03jQIgaJ7uVHNKTH3V63VeIhPe72egd3e72WL+5EA0uIw1yeunOw3nQmvbjlUy74U+FPxmNYOWhDVrkMKpcUKlO5aFeq2i4VdorpFk7dBVgUzchVjoanx+M/j5tK/wA8bip1AO/tptJkikSd2zOy3ukaWTSKiTXqYTzfCk6SCR2wPcNQLXINIqWWuybF27JBMCiXNfhEkrk8tS+McTRDGqvru5X1bsuexWFiDSJyBaAuNCvMnERz9X1lTsBc3y3FCV4l3SZTsBEnR11wnAkzNaZl054RFveuJ53SVOzpykZ/uH9KbrI/bxvf9pSLmTHGStm0l3RMQ18T59v4K5dwm44P4+KS0q7fkBZ3jnY9hcQt+dk0m2duZ5fYytR8qWjiArCp0wMsWEcLWHCCwfQPUB+HvW1ZivWLIZkeCOJxBGDaAfCufHPR2HcATLi3GJIyq4s+DgHYZWVCWhW8ZONY+C7+osgaMP94/QGTX54/fXr5/ZP7/9c/eDI/evmxlPTjfwE=);lineShape=1;" vertex="1" parent="1">
                    <mxGeometry x="-995.3069123786885" y="318.16040353133394" width="4236.062389392274" height="566.3881939058824" as="geometry"/>
                </mxCell>
                <mxCell id="28" value="" style="rhombus;whiteSpace=wrap;html=1;" vertex="1" parent="1">
                    <mxGeometry x="140" y="362.5" width="80" height="80" as="geometry"/>
                </mxCell>
                <mxCell id="29" value="" style="shape=stencil(rZfdbtswDIWfxreESOr3uuveo0DTJViWFGm2tW8/aZ4yi65PMWB3jvNREslDUp707mX/8LybxL1cL+evu5+Hx+t+0k+TyOG0310O1/o06f2kd0/ny+7L5fz99Dj/fn5oZHv6dv7RVnid7Uohdc1K3Nv8RimH3y8+z/zxcFrwuZDngWeh5LcNUqQQBgPxxHnbIArlcQdNpGCHoOT9YOAjxbRt4IV0PFJIlGTbQJlCGQxiJg8MRMiPBqnuELcNWIllMMiJMvAhEseBL4EiOhFFwxcKinhhy6PzMMXRYXaOnEMGnOwGBTjg7AaVj8ABRyqWZ5CBeto88pkCcPjm3Y1PVIC/lS+WF6BqZzVaYk/hBp/U8gLjbxMcqIB4cq/yBY8EUQW0Or+DAk3O8grWV3Irf3NBvIiNf0A137Oz0APD9W1+M2VYYGmlZwVtUXo0FnyCBZnX9QXW595jlzzUf17xCQwOR15X/sL65VX8kb+1vtjyDNd3Zv1EHtaX1UPsEdjgzchoev6PvO/VfeMF64G7fG8TxsMEt447RjT5rtn3DYptQTGQBy3IV02MGg2+d/n3Jz3bu4RXimCH6KiMWVMPq7i5OPrQhA4M6pgORtewjKvKdBzE7iM+seEZyKKp3hn+T2Fs8WHFg4hWvlieQRutVS4rf0GbaNcSy0cUn3otGc/DPQBbfAmGD6gtutWgl97pNzeIhkcSbQ6Mg0n7TWSLj/bCHlCC//GC/zFfH/5+TTwdjsf5Y2T5v/36qK/mLxe9/wU=);lineShape=1;" vertex="1" parent="1">
                    <mxGeometry x="54.69626502655956" y="173.6856652507488" width="169.13359243747027" height="132.8924302890266" as="geometry"/>
                </mxCell>
                <mxCell id="30" value="" style="shape=stencil(lZfbUuMwDIafJrca+SxfA/sezFBohtIypezh7dfZrGksJ3+Hu8TRF0uyTh7c3cf+8X03WP64nE+vu1/j02U/uPvB2vG4353HS3ka3MPg7p5P593L+fR5fJrf3x8nyenp7fRz+sPvmTPEboIs/5kXmFj+LfyYxQ/jcSEeKbTijnLcFjeJgm/kjSUJ24DNFFug7DC9bgFOyHCrEZMAlbyQzw3gmQIwOWSyqQGCIeuAjzLl1oZoyfptIEnVuALJUAZGS9LHIIZS3gZyINMC2ZA3AMiUFJAoARsKINICUkNrC8hJAw7YYLiEJmtCGG/R+rWsGOSmXINzAQQQruVzFA0I9qvvgP9+2AJsZ0PGNnBngyCgODFpICKVpIuNTA55SSgqGwSWjVUgYECrVOoCtkGlXIlvVJgmt3oNRHzSNmgg4Gj1nUoBVIHrMS1VQl4qgdAlNaozU6gF7VYL3Lqeozd0yl1CME4IyRrwuDIlr4GEK1PoMihjwLV+XfhhizC22wIZIVWDpRE4574JeHIqmlztlOtNKJK0NoiDNpQ2Z9qjTr42761GalsgevLAhlBirTU6uFpv14eBpLuWt3Vlfdz4yuGvccPBllIGGm6z2gaKwGgTdV80gRzyErFpnQSrBuvxx8JkYB3algLITq7OuIqjzlCyRIuj3C/ibcQZGNJdLcIzz8rfbyjT6s43lDFa3MO/Oz2XoxGyO1U8xrPuHLhcsR6LsPg37xQ3xcvD9fryPB4O8+1n+V1fd8rSfFVyD38B);lineShape=1;" vertex="1" parent="1">
                    <mxGeometry x="-199.83014194588895" y="286.68890492557307" width="372.2574612563162" height="200.00799829469497" as="geometry"/>
                </mxCell>
                <mxCell id="31" value="" style="shape=stencil(7VnLbhsxDPwaXwW9RZ3T9j8CxGmMpnHgpK+/76jGbiRqPUaBHnrIzdZyViI5fGl34ebl4fZ5v/P25fV0/LL/cbh7fdiFDzvvD08P+9PhFb924eMu3NwfT/vPp+O3p7vz/+fbJtl+fT1+b2/4ecYFZ3JuKG9/nVeq8enPwqez/OPhqZePJsogn4zNRD6blAZ5bxyTF2PH91tT/GX5aI1zSt5aIu9NqkpeApGPppZBPphYiHw2MsqXZWFbXowfz++CyUzhauy4ATTIxGMAhFFjL9eOVEdAKKYwm+JxHACwQmI6JO2EFE2u1Gt53CGDRgQQYKXRrHlducTrMvKurJ7fBoB4I7FLNRIvAxAocXScgEokFODXGkZANpYo7fLCnBUgVGkHs45KSzWR6IDcMG5QLZXPJqjk4harbftZBwPkGfOcEXUebwIhnjM+a/lE3g8PiJZn0Y9c5abzEPvYhQCdvKPn0eeHfQiFpuQI+UDsj9w5+VcI49Zc2/OBEA7yY8yAb5Xax2UtH+l5QtDyjp4njWkFASPU/mK1fKb8VLka8oxvSRdLKSaS6uRACNEARiCkiKJOlKnGG1kr0+qBgu/jpAPxAcqNdhpWyJGynXSophArIZMnRWtnklwGNK+O9alG6odalxOvAPiBWAkA5WkAArESAEppAJgOAFSvAZXkCmfnaBbqubZF1QDGDQBEASp1ddPaawBrduqaHzoAy2B47Ef2dXbYRshixm4LZlgAZiUKM5NMfK20UwAgTFpbZiZZylLnOZbIGkA0wLFOATqo0lNokDYrTSFE2SdL6egAntNVdxeFziLN6lPMseGo+XXWgQepiAawcaRRbfIDO9J2VJcrUT1GBFaumEm1zi27MW7gcdGAK1qHKSAqt6tqNN5y1b8BvBXynhvkSChCOkYj5QbKnJ7M13b94ig5dYesprRSPbVvbG6bm4FqaX+FdkOiBnjWn6z9YwdgaSNNZRE6k9zqp+TtaAf6PjG8Twz/88Tg9MUI5Jm+Ud+LNHni37xU+U7ekxSBojxNMOxmx/mFXt18QUf+rKu4JNpD+imltHsXklJgI+0zu5TpbQAaizG1F5R9YqQQlpy2AjyNynYBN6aVXOi1a3R6CkM5SQwQdSCnqxedChATjYS4TkTdtSLdoeheHoZ2xKxth9HTCA86emZ9n+X4bXa7DR7Z2iZwko5iWKy++sFUZiSnN4hcfiI3/EjOA5PL9H52jwqfjudHOLPpP+hbUQS4ZQCvu82WEUh0hunO0vGKDED0E4AFm9/QIbE+yi0+6nVgH1Hchg6sigOguk3HyzgAal5zvI6HtVXsmF250jOAVZKwNmYdgA3aAOhZnpbOv/6UdVUeP96+m90fHh/Pn9365/o7G5bO3+jCx98=);lineShape=1;" vertex="1" parent="1">
                    <mxGeometry x="-228.93612424870298" y="372.3586653273371" width="308.3752383064152" height="179.57930334813886" as="geometry"/>
                </mxCell>
            </root>
        </mxGraphModel>
    </diagram>
</mxfile>